# xmcd CD database file
#
# Track frame offsets:
#	150
#	16766
#	28547
#	44654
#	60975
#	73991
#	87897
#	101385
#	113720
#	127862
#	141927
#	154303
#	172762
#	186750
#
# Disc length: 2703 seconds
#
# Revision: 0
# Processed by: cddbd v1.5.2PL0 Copyright (c) Steve Scherf et al.
# Submitted via: CDex 1.51
#
DISCID=b00a8d0e
DTITLE=Fred Heyden - Further Out
DYEAR=2006
DGENRE=Country
TTITLE0=Further Out
TTITLE1=Old Bush Pub
TTITLE2=Flyin' Doctors Ball
TTITLE3=Sail the Nullarbor
TTITLE4=Thousand Feet
TTITLE5=Stockman's Hall of Fame
TTITLE6=Listen to the Country
TTITLE7=Down at the Woolshed
TTITLE8=Rainbow over the Rock
TTITLE9=The Murray Stream
TTITLE10=Old front Verandah
TTITLE11=A Girl from the Land
TTITLE12=Country Way of Life
TTITLE13=Waltzing Matilda
EXTD=YEAR: 2006
EXTT0=
EXTT1=
EXTT2=
EXTT3=
EXTT4=
EXTT5=
EXTT6=
EXTT7=
EXTT8=
EXTT9=
EXTT10=
EXTT11=
EXTT12=
EXTT13=
PLAYORDER=
